<svg id="Capa_1" data-name="Capa 1" xmlns="http://www.w3.org/2000/svg" xmlns:xlink="http://www.w3.org/1999/xlink" viewBox="0 0 780.17 187.85"><defs><style>.cls-1{fill:url(#Degradado_sin_nombre_31);}.cls-2{fill:url(#Degradado_sin_nombre_31-2);}.cls-3{fill:url(#Degradado_sin_nombre_31-3);}.cls-4{fill:url(#Degradado_sin_nombre_31-4);}.cls-5{fill:url(#Degradado_sin_nombre_31-5);}.cls-6{fill:url(#Degradado_sin_nombre_31-6);}.cls-7{fill:url(#Degradado_sin_nombre_31-7);}</style><linearGradient id="Degradado_sin_nombre_31" x1="346.83" y1="669.2" x2="344.85" y2="247.11" gradientUnits="userSpaceOnUse"><stop offset="0.04" stop-color="#b2b2b2"/><stop offset="0.19" stop-color="#fff"/><stop offset="0.27" stop-color="#b2b2b2"/><stop offset="0.32" stop-color="#d0d0d0"/><stop offset="0.37" stop-color="#ececec"/><stop offset="0.4" stop-color="#f6f6f6"/><stop offset="0.55" stop-color="#dadada"/><stop offset="0.78" stop-color="#fff"/><stop offset="0.94" stop-color="#c6c6c6"/></linearGradient><linearGradient id="Degradado_sin_nombre_31-2" x1="365.91" y1="669.11" x2="363.92" y2="247.02" xlink:href="#Degradado_sin_nombre_31"/><linearGradient id="Degradado_sin_nombre_31-3" x1="569.43" y1="668.16" x2="567.45" y2="246.07" xlink:href="#Degradado_sin_nombre_31"/><linearGradient id="Degradado_sin_nombre_31-4" x1="701.49" y1="667.54" x2="699.5" y2="245.45" xlink:href="#Degradado_sin_nombre_31"/><linearGradient id="Degradado_sin_nombre_31-5" x1="772.64" y1="667.2" x2="770.66" y2="245.11" xlink:href="#Degradado_sin_nombre_31"/><linearGradient id="Degradado_sin_nombre_31-6" x1="822.47" y1="666.97" x2="820.49" y2="244.88" xlink:href="#Degradado_sin_nombre_31"/><linearGradient id="Degradado_sin_nombre_31-7" x1="859.87" y1="666.79" x2="857.89" y2="244.7" xlink:href="#Degradado_sin_nombre_31"/></defs><path class="cls-1" d="M534.2,574.93a9.39,9.39,0,0,1-7.05-4.53.86.86,0,0,0-1-.38.8.8,0,0,0-.4.2,33.89,33.89,0,0,1-36.12,4.3,55,55,0,0,0-9.13-53.34,33.82,33.82,0,0,1,44.78-2.69.93.93,0,0,0,1.44-.19,9.54,9.54,0,0,1,6.82-5.38.92.92,0,0,0,.4-1.53,44.73,44.73,0,0,0-61.11,2.2,55,55,0,0,0-73.53,4.76v-7.27a93.54,93.54,0,0,0,0-9.62c-.46-4.31-5.54-3.29-8.64-3.29-2.68,0-4.56.85-4.71,3.78-.29,5.85,0,11.78,0,17.64v43.18l-.52-.62a.92.92,0,0,0-1.3,0,40.8,40.8,0,0,1-59.43,4.64,52,52,0,0,0,.84-59.52,41.08,41.08,0,0,1,23-10c.54-.06,1.11-.55.89-1.16a11.7,11.7,0,0,1,0-8.46.93.93,0,0,0-.83-1.16h-.06c-27.67,2.28-49.18,26.67-47.17,54.56a51.6,51.6,0,0,0,8.35,24.53,39.59,39.59,0,0,1-56.06-3.48,52.11,52.11,0,0,0-7.41-60.6c-.6-.65-1.48-.08-1.58.64a1.79,1.79,0,0,1,0,.23,52.11,52.11,0,0,0-5.85,60.08,39.14,39.14,0,0,1-60.27-50,.94.94,0,0,0-.19-1.45,11.19,11.19,0,0,1-6.35-8,.93.93,0,0,0-1.54-.41c-14.36,16.44-17.19,40.53-6.35,59.61a51.43,51.43,0,0,0,82.11,10,52,52,0,0,0,71.28,2.57,51.66,51.66,0,0,0,68.47,1v7.49c0,3,1.19,4.63,4.36,4.67,2.17,0,6.46.76,8.12-1.1s.87-5.37.87-7.43V574c0-2-.93-3.64-1.53-5.56A42.63,42.63,0,0,1,465.83,523,44.75,44.75,0,0,0,475,577.33c-.78,1.29-1.6,2.52-2.49,3.75a.89.89,0,0,0,0,.92,47.52,47.52,0,0,1,5.1,9.47.93.93,0,0,0,1.54.41A61.53,61.53,0,0,0,485,584a44.83,44.83,0,0,0,49.86-7.53C535.5,575.91,534.92,575,534.2,574.93Zm-54.72-8.08a34.11,34.11,0,0,1-8.56-22.3,35.13,35.13,0,0,1,2.64-13A43.29,43.29,0,0,1,479.48,566.85ZM316.89,556.77a40.93,40.93,0,0,1,.44-39.49A39.68,39.68,0,0,1,316.89,556.77Zm-70.66-7.7a38.68,38.68,0,0,1-.13-24.46A40.21,40.21,0,0,1,246.23,549.07Z" transform="translate(-157.47 -404.31)"/><path class="cls-2" d="M364.82,497.24a.58.58,0,0,0,.23,0,.62.62,0,0,0,.24,0,9,9,0,0,0-.2-18.08h0a9,9,0,0,0-.23,18.08Z" transform="translate(-157.47 -404.31)"/><path class="cls-3" d="M568.89,500.11h-.09a44.08,44.08,0,1,0,43.29,35.44C608.06,515.05,589.6,500.33,568.89,500.11Zm32.67,50.26A33.44,33.44,0,1,1,586,515.23,33.81,33.81,0,0,1,601.56,550.37Z" transform="translate(-157.47 -404.31)"/><path class="cls-4" d="M787.69,559.57a34.18,34.18,0,0,1-5.52.54,32.08,32.08,0,0,1-4.16-.31,1,1,0,0,0-1,.43,33.47,33.47,0,0,1-59-2,44.09,44.09,0,0,0,52.43-52,.9.9,0,0,0-.45-.79c.65.36,0-.42-.13-.5-.87-.84-2.72-1.37-3.82-1.83a44.62,44.62,0,0,0-6.85-2.25,1,1,0,0,0-.57.05,42.24,42.24,0,0,0-10.28-1.27,44.86,44.86,0,0,0-43.59,36.49V472.35c0-3-.13-6.1-3.83-6.67a1.27,1.27,0,0,0-.28,0h-.22c-1,0-2.08-.08-3.18-.08-3,0-6,.52-6.34,4.21-.21,2.51,0,5.12,0,7.64v38.82a44.09,44.09,0,1,0-.11,56.81c-.23,4-.36,9,4.22,9.42,3.78.37,9.38.7,9.74-4.27.47-6.39,0-13,0-19.4v-7.45c4.07,22.7,26.07,39.57,49.92,36.06a44.51,44.51,0,0,0,34.12-26.49A.93.93,0,0,0,787.69,559.57Zm-97.86-8.81a33.44,33.44,0,1,1-15.58-35.14A33.82,33.82,0,0,1,689.83,550.76ZM748,510.08a35.38,35.38,0,0,1,12.43,2.39,33.42,33.42,0,0,1-45.77,33.44A33.79,33.79,0,0,1,748,510.08Z" transform="translate(-157.47 -404.31)"/><path class="cls-5" d="M803.79,445.43a78.19,78.19,0,0,0-20.63-2.72c-14,0-32.13,3.92-43.66,21.22l35.22,10.56Z" transform="translate(-157.47 -404.31)"/><path class="cls-6" d="M803.79,555.51c33.45-11.44,36.1-46.67,36.1-46.67l-36.1,10.56C806.42,524.69,803.79,555.51,803.79,555.51Z" transform="translate(-157.47 -404.31)"/><path class="cls-7" d="M937.62,407.56h0l-.06,0h0l-.11,0h0l-.14,0,0,0-.21-.07h0l-.24-.07-.08,0-.23-.06-.09,0-.33-.09-.11,0-.28-.08-.14,0-.38-.09-.15,0-.35-.09-.2-.05-.32-.08-.21,0-.5-.12-.26-.06-.32-.07-.3-.06-.38-.08-.49-.1-.34-.07-.37-.07-.32-.06-.69-.12-.33-.06-.45-.07-.3,0-.49-.08-.23,0-1-.14-.26,0-.57-.08-.26,0-2-.24-.25,0-.69-.07h0l-1.54-.14-.2,0-.75-.05-.21,0-2.47-.14h-.26c-.84,0-1.71-.07-2.6-.08h-2.13c-17,0-41.52,3.89-69.83,20.14l0,0c-1.13.66-2.27,1.33-3.42,2l-.06,0-1.71,1-.07,0-1.67,1.05-.07,0-1.68,1.07-.18.12L832.53,431l0,0-1.66,1.11-.27.18c-1.09.75-2.18,1.51-3.28,2.3l-.33.23c-.55.39-1.1.78-1.64,1.18l0,0-1.59,1.17-.38.28-1.6,1.2-.23.18L820.06,440l-.41.32-1.57,1.23-.36.29-1.32,1.06-.42.35c-.52.41-1,.84-1.55,1.27l-.45.37-1.27,1.07-.42.36-1.54,1.31-.51.44L809,449.15l-.39.34-1.53,1.37-.55.49-1.33,1.21-.44.41-1.42,1.32-.56.52-1.49,1.42-.43.41-1.28,1.24-.57.55L797.45,460l-.46.45-1.24,1.25-.54.55-1.55,1.59-.49.51c-.42.43-.84.87-1.25,1.31-.17.17-.33.34-.49.52-.53.55-1,1.11-1.58,1.67l-.5.54L788,469.78l-.4.44c-.54.59-1.08,1.18-1.61,1.78l-.48.54c-.49.54-1,1.09-1.46,1.64-.08.1-.17.19-.26.29l-1.67,1.92-.43.51c-.57.66-1.14,1.32-1.71,2,0,0,20.25,18.49,21.13,35.22L867,462.73a18.89,18.89,0,0,1-10.34-16.86c0-.32,0-.65,0-1a18.92,18.92,0,0,1,37.14-4c.08.26.14.52.2.79l43.65-34.07Z" transform="translate(-157.47 -404.31)"/></svg>