<svg id="Capa_1" data-name="Capa 1" xmlns="http://www.w3.org/2000/svg" xmlns:xlink="http://www.w3.org/1999/xlink" viewBox="0 0 541.24 413"><defs><style>.cls-1{fill:url(#Degradado_sin_nombre_23);}.cls-2{fill:url(#Degradado_sin_nombre_23-2);}.cls-3{fill:url(#Degradado_sin_nombre_23-3);}</style><linearGradient id="Degradado_sin_nombre_23" x1="321.78" y1="1262.21" x2="370.89" y2="215.62" gradientUnits="userSpaceOnUse"><stop offset="0.04" stop-color="#7b42d5"/><stop offset="0.19" stop-color="#1b0044"/><stop offset="0.27" stop-color="#644d87"/><stop offset="0.29" stop-color="#8771a7"/><stop offset="0.32" stop-color="#b19fce"/><stop offset="0.34" stop-color="#ccbbe7"/><stop offset="0.35" stop-color="#d6c5f0"/><stop offset="0.55" stop-color="#5727a3"/><stop offset="0.78" stop-color="#9153f4"/><stop offset="0.94" stop-color="#1b0044"/></linearGradient><linearGradient id="Degradado_sin_nombre_23-2" x1="466.2" y1="1268.98" x2="515.31" y2="222.4" xlink:href="#Degradado_sin_nombre_23"/><linearGradient id="Degradado_sin_nombre_23-3" x1="557.94" y1="1273.29" x2="607.04" y2="226.7" xlink:href="#Degradado_sin_nombre_23"/></defs><path class="cls-1" d="M445,483.32a213,213,0,0,0-56.35-7.45c-38.38,0-87.77,10.73-119.26,58l96.21,28.86Z" transform="translate(-269.34 -371)"/><path class="cls-2" d="M445,784c91.39-31.26,98.62-127.48,98.62-127.48L445,685.38C452.16,699.82,445,784,445,784Z" transform="translate(-269.34 -371)"/><path class="cls-3" d="M810.52,379.87h0l-.15-.05-.08,0-.31-.1-.09,0-.36-.11-.15-.05-.58-.18h0l-.66-.2-.22-.07-.64-.18-.22-.07-.91-.25-.32-.09-.74-.2-.41-.11-1-.26-.42-.11-.94-.24-.56-.13-.88-.21-.57-.14-1.36-.31-.71-.16-.89-.19-.79-.17-1.06-.22-1.32-.27-.94-.18-1-.2-.87-.16-1.87-.33-.91-.16-1.25-.21-.81-.14-1.34-.21-.63-.1-2.73-.4-.7-.1-1.56-.21-.7-.09c-1.76-.22-3.58-.44-5.47-.64l-.69-.08-1.89-.19h0l-4.2-.37-.55-.05-2.06-.15-.56,0c-2.18-.15-4.43-.29-6.74-.39l-.71,0c-2.3-.11-4.67-.18-7.1-.23h-.74l-2.3,0H743c-46.39,0-113.4,10.61-190.73,55l-.1.06c-3.11,1.78-6.22,3.62-9.36,5.51l-.17.1q-2.33,1.41-4.67,2.86l-.17.11q-2.28,1.41-4.57,2.86l-.19.12-4.59,2.94-.49.32-4.45,2.93-.15.1q-2.27,1.5-4.53,3.05l-.72.49q-4.47,3-9,6.26l-.91.64c-1.49,1.07-3,2.14-4.47,3.23l-.09.06c-1.44,1.05-2.89,2.12-4.33,3.2l-1,.77q-2.17,1.62-4.36,3.29l-.64.49-3.86,3-1.12.87q-2.13,1.67-4.27,3.37l-1,.8q-1.78,1.43-3.59,2.89l-1.16.94c-1.41,1.14-2.81,2.3-4.22,3.47l-1.24,1-3.47,2.91-1.15,1q-2.1,1.78-4.19,3.6l-1.39,1.2c-1.16,1-2.32,2-3.48,3.05-.36.31-.72.62-1.07.94-1.39,1.23-2.79,2.48-4.18,3.73l-1.5,1.35-3.63,3.31-1.21,1.11-3.88,3.6L442.12,509c-1.36,1.27-2.71,2.56-4.07,3.86l-1.17,1.12c-1.17,1.12-2.34,2.26-3.51,3.4l-1.54,1.5-4.2,4.14-1.23,1.24q-1.71,1.69-3.4,3.42l-1.48,1.49q-2.11,2.16-4.23,4.35L416,534.85l-3.44,3.59-1.33,1.41q-2.16,2.26-4.3,4.58l-1.36,1.47c-1.21,1.29-2.41,2.6-3.61,3.91-.37.41-.74.8-1.1,1.21q-2.2,2.41-4.41,4.88c-.44.48-.87,1-1.31,1.46q-2,2.22-4,4.48l-.71.81c-1.51,1.72-3,3.47-4.55,5.23l-1.2,1.39q-2.32,2.7-4.67,5.46s55.34,50.51,57.73,96.22L617.54,530.58a51.66,51.66,0,0,1-28.26-46.05c0-.89,0-1.78.07-2.66a51.69,51.69,0,0,1,101.46-11.06c.2.71.37,1.42.54,2.14l119.23-93.06Z" transform="translate(-269.34 -371)"/></svg>